<svg height="384pt" viewBox="-52 0 384 384" width="384pt" xmlns="http://www.w3.org/2000/svg"><path d="m140.453125 88c-27.792969 0-53.910156 10.816406-73.550781 30.441406-6.25 6.246094-6.25 16.382813-.007813 22.628906 6.246094 6.25 16.382813 6.242188 22.632813.007813 13.589844-13.589844 31.679687-21.078125 50.925781-21.078125 39.703125 0 72 32.296875 72 72 0 27.183594-15.054687 51.769531-39.277344 64.152344-.28125.144531-.503906.34375-.777343.496094-.480469.28125-.953126.574218-1.402344.902343-.421875.3125-.8125.640625-1.199219.984375-.375.34375-.742187.6875-1.085937 1.066406-.359376.390626-.6875.796876-1.007813 1.222657-.304687.40625-.59375.816406-.855469 1.246093-.265625.433594-.503906.882813-.730468 1.335938-.230469.472656-.4375.953125-.632813 1.457031-.175781.480469-.320313.960938-.445313 1.449219-.128906.496094-.25.992188-.335937 1.503906-.097656.558594-.136719 1.121094-.167969 1.6875-.007812.304688-.082031.59375-.082031.894532v17.601562h-48v-17.601562c0-.300782-.070313-.589844-.085937-.886719-.03125-.566407-.082032-1.128907-.167969-1.6875-.082031-.511719-.203125-1.007813-.335938-1.503907-.128906-.488281-.273437-.976562-.449219-1.449218-.183593-.496094-.398437-.976563-.632812-1.457032-.222656-.453124-.457031-.894531-.726562-1.335937-.265626-.429687-.550782-.847656-.855469-1.246094-.320313-.425781-.648438-.832031-1.007813-1.222656-.34375-.378906-.707031-.722656-1.089844-1.066406-.382812-.34375-.777343-.679688-1.199218-.984375-.449219-.328125-.921875-.621094-1.398438-.902344-.265625-.160156-.496094-.359375-.777344-.496094-24.214843-12.390625-39.273437-36.976562-39.273437-64.160156 0-8.832031-7.167969-16-16-16s-16 7.167969-16 16c0 35.878906 18.183594 68.558594 48 87.585938v48.414062c0 30.871094 25.128906 56 56 56s56-25.128906 56-56v-48.414062c29.816406-19.027344 48-51.714844 48-87.585938 0-57.34375-46.65625-104-104-104zm0 264c-13.230469 0-24-10.769531-24-24v-8h48v8c0 13.230469-10.765625 24-24 24zm0 0"/><path d="m156.453125 32v-16c0-8.832031-7.167969-16-16-16s-16 7.167969-16 16v16c0 8.832031 7.167969 16 16 16s16-7.167969 16-16zm0 0"/><path d="m38.621094 67.542969-11.3125-11.3125c-6.246094-6.246094-16.375-6.246094-22.621094 0-6.25 6.25-6.25 16.378906 0 22.625l11.308594 11.3125c3.128906 3.128906 7.21875 4.6875 11.3125 4.6875 4.097656 0 8.183594-1.558594 11.3125-4.6875 6.257812-6.246094 6.257812-16.367188 0-22.625zm0 0"/><path d="m253.597656 56.230469-11.3125 11.3125c-6.246094 6.25-6.246094 16.378906 0 22.625 3.128906 3.128906 7.21875 4.6875 11.3125 4.6875 4.097656 0 8.183594-1.558594 11.3125-4.6875l11.3125-11.3125c6.246094-6.246094 6.246094-16.375 0-22.625-6.25-6.246094-16.375-6.246094-22.625 0zm0 0"/></svg>