<svg width="52" height="51" viewBox="0 0 52 51" fill="none" xmlns="http://www.w3.org/2000/svg">
<path d="M34.6667 41.4375V36.125C34.6667 35.8151 34.5651 35.5606 34.362 35.3613C34.1589 35.1621 33.8993 35.0625 33.5833 35.0625H30.3333V18.0625C30.3333 17.7526 30.2318 17.498 30.0286 17.2988C29.8255 17.0996 29.566 17 29.25 17H18.4167C18.1007 17 17.8411 17.0996 17.638 17.2988C17.4349 17.498 17.3333 17.7526 17.3333 18.0625V23.375C17.3333 23.6849 17.4349 23.9395 17.638 24.1387C17.8411 24.3379 18.1007 24.4375 18.4167 24.4375H21.6667V35.0625H18.4167C18.1007 35.0625 17.8411 35.1621 17.638 35.3613C17.4349 35.5606 17.3333 35.8151 17.3333 36.125V41.4375C17.3333 41.7474 17.4349 42.002 17.638 42.2012C17.8411 42.4004 18.1007 42.5 18.4167 42.5H33.5833C33.8993 42.5 34.1589 42.4004 34.362 42.2012C34.5651 42.002 34.6667 41.7474 34.6667 41.4375ZM30.3333 11.6875V6.375C30.3333 6.0651 30.2318 5.81055 30.0286 5.61133C29.8255 5.41211 29.566 5.3125 29.25 5.3125H22.75C22.434 5.3125 22.1745 5.41211 21.9714 5.61133C21.7682 5.81055 21.6667 6.0651 21.6667 6.375V11.6875C21.6667 11.9974 21.7682 12.252 21.9714 12.4512C22.1745 12.6504 22.434 12.75 22.75 12.75H29.25C29.566 12.75 29.8255 12.6504 30.0286 12.4512C30.2318 12.252 30.3333 11.9974 30.3333 11.6875ZM48.513 12.7168C50.8377 16.6126 52 20.8737 52 25.5C52 30.1263 50.8377 34.3929 48.513 38.2998C46.1884 42.2067 43.0343 45.3001 39.0508 47.5801C35.0673 49.86 30.717 51 26 51C21.283 51 16.9327 49.86 12.9492 47.5801C8.96569 45.3001 5.81164 42.2067 3.48698 38.2998C1.16232 34.3929 0 30.1263 0 25.5C0 20.8737 1.16232 16.6071 3.48698 12.7002C5.81164 8.79327 8.96569 5.69988 12.9492 3.41992C16.9327 1.13996 21.283 0 26 0C30.717 0 35.0673 1.13996 39.0508 3.41992C43.0343 5.69988 46.1884 8.79881 48.513 12.7168Z" fill="black"/>
</svg>
