<svg width="52" height="60" viewBox="0 0 52 60" fill="none" xmlns="http://www.w3.org/2000/svg">
<path d="M22.1406 36.0938C22.1181 36.1607 21.977 36.1551 21.7174 36.077C21.4579 35.9989 21.1024 35.8705 20.651 35.692L19.974 35.3906C18.9809 34.9442 17.9991 34.3973 17.0286 33.75C16.8707 33.6384 16.408 33.2868 15.6406 32.6953C14.8733 32.1038 14.4444 31.7857 14.3542 31.7411C12.842 34.0402 11.3299 36.0603 9.81771 37.8013C7.98957 39.9219 6.80469 41.1496 6.26302 41.4844C6.17274 41.529 5.95269 41.5737 5.60287 41.6183C5.25304 41.6629 5.04427 41.6629 4.97656 41.6183C5.11198 41.529 6.03732 40.5022 7.7526 38.5379C8.22657 38.0022 9.1914 36.7188 10.6471 34.6875C12.1029 32.6562 12.9887 31.3393 13.3047 30.7366C13.6884 30.067 14.2639 28.9676 15.0313 27.4386C15.7986 25.9096 16.2049 25.0446 16.25 24.8438C16.0694 24.8214 14.8281 25.1897 12.526 25.9487C12.3455 25.9933 12.0352 26.077 11.5951 26.1998C11.1549 26.3225 10.7656 26.4286 10.4271 26.5179C10.0885 26.6071 9.8967 26.6629 9.85156 26.6853C9.80642 26.7299 9.78385 26.8471 9.78385 27.0368C9.78385 27.2266 9.77257 27.3326 9.75 27.3549C9.63715 27.5781 9.28733 27.7455 8.70052 27.8571C8.18142 28.0134 7.65104 28.0134 7.10938 27.8571C6.70312 27.7679 6.38715 27.5335 6.16146 27.154C6.07118 27.0201 6.01476 26.7634 5.99219 26.3839C6.1276 26.3393 6.40408 26.2835 6.82162 26.2165C7.23915 26.1496 7.57205 26.0826 7.82031 26.0156C9.12935 25.6585 10.3142 25.3013 11.375 24.9442C13.632 24.1629 14.783 23.7723 14.8281 23.7723C15.0538 23.7277 15.5391 23.51 16.2839 23.1194C17.0287 22.7288 17.5252 22.4888 17.7734 22.3996C17.9766 22.3326 18.2192 22.2433 18.5013 22.1317C18.7834 22.0201 18.9471 21.9587 18.9922 21.9475C19.0373 21.9364 19.105 21.942 19.1953 21.9643C19.2405 22.2321 19.2292 22.6004 19.1615 23.0692C19.1615 23.1138 19.0204 23.4152 18.7383 23.9732C18.4562 24.5313 18.1571 25.1283 17.8411 25.7645C17.5252 26.4007 17.3333 26.7746 17.2656 26.8862C16.7014 28.0022 15.8325 29.4643 14.6589 31.2723L16.8255 32.2098C17.0964 32.3438 17.9371 32.7009 19.3477 33.2812C20.7583 33.8616 21.52 34.1741 21.6328 34.2188C21.7231 34.2411 21.8416 34.5257 21.9883 35.0725C22.135 35.6194 22.1858 35.9598 22.1406 36.0938ZM15.2005 19.8214C15.2682 20.1563 15.2231 20.4688 15.0651 20.7589C14.7943 21.2723 14.23 21.6964 13.3724 22.0312C12.6953 22.2991 12.0182 22.433 11.3411 22.433C10.7543 22.3661 10.2014 22.0759 9.68229 21.5625C9.36632 21.2277 9.1632 20.7701 9.07292 20.1897L9.10677 20.0893C9.17448 20.1562 9.39453 20.2121 9.76693 20.2567C10.1393 20.3013 10.4384 20.3013 10.6641 20.2567C10.8898 20.2121 11.5443 20.0335 12.6276 19.721C13.4401 19.4531 14.0608 19.2969 14.4896 19.2522C14.8733 19.2522 15.1102 19.442 15.2005 19.8214ZM38.8307 24.1406L40.9635 31.7411L36.2578 30.3348L38.8307 24.1406ZM1.32031 50.9263L24.8151 43.1585V8.60491L1.32031 16.4062V50.9263ZM43.3333 40.3125L46.7865 41.3504L40.6589 19.3527L37.2734 18.3147L29.9609 36.2612L33.4141 37.2991L34.9375 33.6161L42.0807 35.7924L43.3333 40.3125ZM26.3047 8.10268L45.7031 14.2634V1.54018L26.3047 8.10268ZM36.8333 52.3996L42.1823 52.8348L40.3542 58.192L39 55.9821C36.066 57.8348 32.9514 59.0402 29.6563 59.5982C28.3472 59.8661 27.3203 60 26.5755 60H23.7318C21.9488 60 19.6975 59.5647 16.9779 58.6942C14.2582 57.8237 12.1875 56.875 10.7656 55.8482C10.5851 55.692 10.4948 55.5134 10.4948 55.3125C10.4948 55.1339 10.5512 54.9833 10.6641 54.8605C10.7769 54.7377 10.9236 54.6763 11.1042 54.6763C11.1944 54.6763 11.3976 54.76 11.7135 54.9275C12.0295 55.0949 12.3737 55.279 12.7461 55.4799C13.1185 55.6808 13.3498 55.8036 13.4401 55.8482C15.0877 56.6741 16.8876 57.3605 18.8398 57.9074C20.7921 58.4542 22.5694 58.7277 24.1719 58.7277C26.316 58.7277 28.2005 58.5658 29.8255 58.2422C31.4505 57.9185 33.2222 57.3549 35.1406 56.5513C35.4792 56.3951 35.8234 56.2221 36.1732 56.0324C36.523 55.8426 36.9067 55.6306 37.3242 55.3962C37.7418 55.1618 38.0634 54.9777 38.2891 54.8438L36.8333 52.3996ZM52 16.2723V52.3996L25.7969 44.1629C25.4809 44.2969 21.2492 45.7198 13.1016 48.4319C4.95395 51.144 0.801216 52.5 0.643229 52.5C0.349825 52.5 0.146702 52.3549 0.0338543 52.0647C0.0338543 52.0424 0.0225695 52.0089 0 51.9643V15.8705C0.0677086 15.6696 0.112847 15.558 0.135416 15.5357C0.248265 15.4018 0.473957 15.279 0.8125 15.1674C3.20487 14.3862 4.88628 13.8281 5.85677 13.4933V0.63616L24.7474 7.26562C24.7925 7.26562 26.6037 6.65179 30.181 5.42411C33.7583 4.19642 37.3242 2.9855 40.8789 1.79129C44.4336 0.597092 46.2561 0 46.3464 0C46.7977 0 47.0234 0.234373 47.0234 0.703125V14.6987L52 16.2723Z" fill="black"/>
</svg>
