<svg id="Capa_1" enable-background="new 0 0 512 512" height="512" viewBox="0 0 512 512" width="512" xmlns="http://www.w3.org/2000/svg"><path d="m507.45 472.64-177.253-252.592c-1.53-2.181-3.383-4.067-5.464-5.627v-54.421h125c5.447 0 10.467-2.954 13.112-7.715s2.501-10.584-.376-15.209l-26.18-42.076 26.18-42.076c2.878-4.625 3.022-10.447.376-15.209s-7.664-7.715-13.112-7.715h-125v-15c0-8.284-6.716-15-15-15s-15 6.716-15 15v199.421c-2.08 1.56-3.934 3.446-5.464 5.627l-83.43 118.89-32.166-44.613c-4.686-6.499-12.267-10.379-20.279-10.379s-15.593 3.88-20.279 10.379l-128.377 178.054c-5.515 7.649-6.272 17.617-1.975 26.011 4.297 8.395 12.824 13.61 22.254 13.61h461.969c9.363 0 17.862-5.161 22.182-13.468 4.319-8.307 3.661-18.229-1.718-25.892zm-365.352 9.36 96.491-137.502 24.723 23.036c5.761 5.367 14.69 5.368 20.451 0l25.967-24.195 25.972 24.196c2.88 2.683 6.552 4.025 10.225 4.025s7.345-1.342 10.225-4.025l24.727-23.037 96.49 137.502zm-30.081-9.361c-2.015 2.871-3.367 6.059-4.044 9.361h-73.187l118.608-164.505 34.203 47.439zm197.716-229.526 53.747 76.591-17.554 16.354-25.973-24.197c-5.761-5.367-14.69-5.366-20.45.001l-25.966 24.195-17.55-16.353zm113-183.113-16.847 27.076c-3.019 4.852-3.019 10.997 0 15.849l16.847 27.075h-98v-70z"/></svg>